# xmcd
#
# Track frame offsets: 
#        150
#        13622
#        40947
#        61077
#        85097
#        105710
#        129572
#        149305
#        173762
#
# Disc length: 2641 seconds
#
# Revision: 3
# Processed by: cddbd v1.5.2PL0 Copyright (c) Steve Scherf et al.
# Submitted via: ExactAudioCopy v0.99pb5
#
DISCID=6e0a4f09
DTITLE=Joe Louis Walker - Live At Slim's Volume 2
DYEAR=1992
DGENRE=Blues
TTITLE0=Don't You Know
TTITLE1=Thin Line
TTITLE2=One Woman
TTITLE3=Blue Guitar
TTITLE4=Shade Tree Mechanic
TTITLE5=747
TTITLE6=Just A Little Bit
TTITLE7=Brother Go Ahead And Take Her
TTITLE8=Love At First Sight
EXTD=
EXTT0=
EXTT1=
EXTT2=
EXTT3=
EXTT4=
EXTT5=
EXTT6=
EXTT7=
EXTT8=
PLAYORDER=
